<svg xmlns="http://www.w3.org/2000/svg" xmlns:xlink="http://www.w3.org/1999/xlink" viewBox="0 0 566.9 170.1" enable-background="new 0 0 566.9 170.1"><style type="text/css">.st0{clip-path:url(#SVGID_2_);fill:#020203;} .st1{fill:#020203;}</style><defs><path id="SVGID_1_" d="M85.1 11.3l-73.2 19.6v108.9l73.2 22.5v-25l73.2-19.5v-84z"/></defs><clipPath id="SVGID_2_"><use xlink:href="#SVGID_1_" overflow="visible"/></clipPath><path class="st0" d="M.5-.1h169.3v173.8h-169.3z"/><path class="st1" d="M219.2 61.8v9.3c0 7.4-4.9 10.4-12.3 10.4h-4.6v19h-8.1v-49h12.7c7.4-.1 12.3 2.8 12.3 10.3zm-8.1 1.2c0-3.5-1.8-4.5-4.5-4.5h-4.3v15.8h4.3c2.7 0 4.5-1 4.5-4.5v-6.8zM237.5 50.8h.6c7.4 0 12.3 2.9 12.3 10.4v29.4c0 7.4-4.9 10.4-12.3 10.4h-.6c-7.4 0-12.3-2.9-12.3-10.4v-29.4c0-7.5 4.9-10.4 12.3-10.4zm.3 43c2.7 0 4.5-1 4.5-4.5v-26.8c0-3.5-1.8-4.5-4.5-4.5s-4.5 1-4.5 4.5v26.9c0 3.4 1.9 4.4 4.5 4.4zM270.3 50.8h.6c7.4 0 12.3 2.9 12.3 10.4v29.4c0 7.4-4.9 10.4-12.3 10.4h-.6c-7.4 0-12.3-2.9-12.3-10.4v-29.4c0-7.5 4.9-10.4 12.3-10.4zm.3 43c2.7 0 4.5-1 4.5-4.5v-26.8c0-3.5-1.8-4.5-4.5-4.5s-4.5 1-4.5 4.5v26.9c0 3.4 1.8 4.4 4.5 4.4zM311.7 100.4h-20.7v-49h8.1v41.7h12.5v7.3zM317.4 100.4v-49h8.1v49h-8.1zM333.9 100.4v-49h21.5v7.1h-13.4v13.5h11.2v7.1h-11.2v14.1h13.6v7.1h-21.7zM377.3 68.9v-6.9c0-3.1-1.7-4.2-4.1-4.2-2.4 0-4.1 1.1-4.1 4.2v3.4c0 2.5.8 3.6 3.2 5l5.7 3.2c4.7 2.7 7.5 4.8 7.5 10.1v7.1c0 7.6-4.7 10.2-12.1 10.2h-.1c-7.4 0-12.1-2.6-12.1-10.2v-8.5h8v7.4c0 3 1.8 4.3 4.2 4.3 2.5 0 4.2-1.3 4.2-4.3v-3.9c0-2.5-.8-3.8-3.2-5.1l-5.7-3.2c-4.8-2.7-7.5-5-7.5-10.1v-6.4c0-7.3 5.3-10.1 12-10.1h.1c6.7 0 12 2.8 12 10.1v8h-8zM413.9 58.5h-8.2v41.9h-8.1v-41.9h-8.2v-7.1h24.5v7.1zM443.7 90.6c0 7.6-4.8 10.4-12.2 10.4h-.3c-7.4 0-12.2-2.7-12.2-10.4v-39.2h8.1v37.9c0 3.5 1.5 4.5 4.2 4.5s4.2-1 4.2-4.5v-37.9h8.1v39.2zM476.5 61.8v28.2c0 7.4-4.9 10.4-12.3 10.4h-12.5v-49h12.5c7.4 0 12.3 2.9 12.3 10.4zm-12.6-3.3h-4.1v34.7h4.1c2.7 0 4.5-1 4.5-4.5v-25.7c0-3.5-1.8-4.5-4.5-4.5zM484.7 100.4v-49h8.1v49h-8.1zM513.2 50.8h.6c7.4 0 12.3 2.9 12.3 10.4v29.4c0 7.4-4.9 10.4-12.3 10.4h-.6c-7.4 0-12.3-2.9-12.3-10.4v-29.4c0-7.5 4.9-10.4 12.3-10.4zm.3 43c2.7 0 4.5-1 4.5-4.5v-26.8c0-3.5-1.8-4.5-4.5-4.5s-4.5 1-4.5 4.5v26.9c0 3.4 1.8 4.4 4.5 4.4zM549.2 68.9v-6.9c0-3.1-1.7-4.2-4.1-4.2-2.4 0-4.1 1.1-4.1 4.2v3.4c0 2.5.8 3.6 3.2 5l5.7 3.2c4.7 2.7 7.5 4.8 7.5 10.1v7.1c0 7.6-4.7 10.2-12.1 10.2h-.1c-7.4 0-12.1-2.6-12.1-10.2v-8.5h8v7.4c0 3 1.8 4.3 4.2 4.3 2.5 0 4.2-1.3 4.2-4.3v-3.9c0-2.5-.8-3.8-3.2-5.1l-5.7-3.2c-4.8-2.7-7.5-5-7.5-10.1v-6.4c0-7.3 5.3-10.1 12-10.1h.1c6.7 0 12 2.8 12 10.1v8h-8z"/></svg>