<svg height="15.04624mm" viewBox="0 0 129.14908 42.65076" width="45.56093mm" xmlns="http://www.w3.org/2000/svg" xmlns:xlink="http://www.w3.org/1999/xlink"><linearGradient id="a" gradientUnits="userSpaceOnUse" x1="108.50727" x2="101.46876" y1="6.12264" y2="18.38327"><stop offset=".55544" stop-color="#2fa7bd"/><stop offset="1" stop-color="#b9ce00"/></linearGradient><linearGradient id="b" gradientUnits="userSpaceOnUse" x1="90.50569" x2="105.12608" y1="37.43436" y2="11.95944"><stop offset=".28845" stop-color="#fbb90f"/><stop offset=".51052" stop-color="#b9ce00"/></linearGradient><path d="m104.50409 13.1662 4.78477-8.27693" fill="none" stroke="#2fa7bd" stroke-miterlimit="10" stroke-width="1.12"/><path d="m90.32631 37.69159 4.74891-8.21489" fill="none" stroke="#fbb90f" stroke-miterlimit="10" stroke-width="1.12"/><g fill="#3a3a38"><path d="m9.3217 29.38623a8.01912 8.01912 0 0 1 -4.36229 1.372 4.96015 4.96015 0 0 1 -3.58787-1.31923 5.30057 5.30057 0 0 1 -1.37154-3.99265v-17.79922h3.30628v4.995h5.69862v2.49752h-5.69862v9.70868a3.44447 3.44447 0 0 0 .56278 2.21613 2.08153 2.08153 0 0 0 1.68833.66838 5.89517 5.89517 0 0 0 2.88473-.87937z"/><path d="m82.64546 14.911a6.47545 6.47545 0 0 0 -3.25369.80918 5.74751 5.74751 0 0 0 -2.23416 2.28632 6.99159 6.99159 0 0 0 -.80833 3.4123 7.11694 7.11694 0 0 0 .79137 3.4123 5.80775 5.80775 0 0 0 2.18072 2.30371 6.10347 6.10347 0 0 0 3.18329.827 8.38149 8.38149 0 0 0 3.23672-.598 6.15882 6.15882 0 0 0 2.39192-1.724l1.86434 1.89954a8.23145 8.23145 0 0 1 -3.21891 2.42712 11.01426 11.01426 0 0 1 -4.41488.84438 9.59874 9.59874 0 0 1 -4.81861-1.196 8.45292 8.45292 0 0 1 -3.28931-3.32409 9.88163 9.88163 0 0 1 -1.17815-4.872 9.98151 9.98151 0 0 1 1.17815-4.88944 8.43232 8.43232 0 0 1 3.28931-3.3419 9.60307 9.60307 0 0 1 4.81861-1.196 11.79413 11.79413 0 0 1 4.2393.721 8.2062 8.2062 0 0 1 3.14766 2.09335l-1.79394 2.25112a7.36762 7.36762 0 0 0 -5.31141-2.14589z"/><path d="m37.11653 12.04412v2.088a8.771 8.771 0 0 0 -1.34439-.99734 10.04542 10.04542 0 0 0 -4.94193-1.196 10.11912 10.11912 0 0 0 -4.97766 1.196 8.60807 8.60807 0 0 0 -3.37675 3.32405 9.6614 9.6614 0 0 0 -1.21369 4.872 9.72989 9.72989 0 0 0 1.21369 4.907 8.60012 8.60012 0 0 0 3.37675 3.32417 10.11463 10.11463 0 0 0 4.97766 1.19617 10.04094 10.04094 0 0 0 4.94193-1.19617 8.688 8.688 0 0 0 1.34439-1.00026v2.09075h3.27147v-18.60837zm-.85153 12.76924a5.68489 5.68489 0 0 1 -2.21645 2.33909 6.29144 6.29144 0 0 1 -3.21838.82674 6.36083 6.36083 0 0 1 -3.25369-.82674 5.6854 5.6854 0 0 1 -2.2159-2.33909 7.31827 7.31827 0 0 1 -.79184-3.44724 7.14049 7.14049 0 0 1 .79184-3.39482 5.8368 5.8368 0 0 1 2.2159-2.33909 6.26031 6.26031 0 0 1 3.25369-.84411 6.19244 6.19244 0 0 1 3.21838.84411 5.83623 5.83623 0 0 1 2.21645 2.33909 7.14668 7.14668 0 0 1 .79129 3.39482 7.32463 7.32463 0 0 1 -.79129 3.44724z"/><path d="m59.66771 8.01653a3.00666 3.00666 0 0 1 2.11078-.774 5.6177 5.6177 0 0 1 2.39193.59815l.774-2.67348a7.238 7.238 0 0 0 -3.23628-.8442 6.54191 6.54191 0 0 0 -3.02514.721 5.614 5.614 0 0 0 -2.269 2.146 6.57577 6.57577 0 0 0 -.86178 3.4649v2.005h-7.14974v-2.42734a2.85569 2.85569 0 0 1 .8444-2.216 3.00605 3.00605 0 0 1 2.11064-.774 5.62057 5.62057 0 0 1 2.39192.59815l.77362-2.67348a7.23762 7.23762 0 0 0 -3.2359-.84412 6.54489 6.54489 0 0 0 -3.02553.72093 5.61545 5.61545 0 0 0 -2.26887 2.146 6.57586 6.57586 0 0 0 -.86177 3.4649v2.005h-2.42682v2.49745h2.42683v15.47761h3.27149v-15.47775h7.14976v15.47775h3.27164v-15.47775h5.13575v-2.49745h-5.13576v-2.42724a2.85591 2.85591 0 0 1 .84383-2.21603z"/><path d="m69.77023 5.20241a2.08483 2.08483 0 0 1 .58017 1.51259 2.08276 2.08276 0 0 1 -.58017 1.51255 2.08123 2.08123 0 0 1 -2.91992 0 2.08276 2.08276 0 0 1 -.58017-1.51255 2.08483 2.08483 0 0 1 .58017-1.51255 2.08123 2.08123 0 0 1 2.91992 0zm-3.07811 6.82418h3.2715v18.60841h-3.2715z"/><path d="m127.28474 13.83813a7.27257 7.27257 0 0 1 1.86434 5.29424v11.50263h-3.27108v-10.62326a4.96852 4.96852 0 0 0 -1.31937-3.67588 4.91912 4.91912 0 0 0 -3.64089-1.31916 5.61637 5.61637 0 0 0 -4.06287 1.60055 6.28307 6.28307 0 0 0 -1.77613 4.06287v9.95488h-3.2715v-18.60841h3.2715v3.93988q1.86392-3.97465 7.07016-4.04527a6.8328 6.8328 0 0 1 5.13584 1.91693z"/><path d="m20.68287 11.99157a10.12086 10.12086 0 0 0 -4.97767 1.19589 8.77311 8.77311 0 0 0 -1.30656.96981v-2.06027h-3.2715v18.6084h3.2715v-9.76168a6.99489 6.99489 0 0 1 .81464-2.91959 5.83775 5.83775 0 0 1 2.21589-2.33908 6.25973 6.25973 0 0 1 3.2537-.84412c.10706 0 .21176.00487.31687.00932v-2.85006c-.10581-.00264-.20981-.00862-.31687-.00862z"/></g><path d="m89.08972 38.10156a1.7146 1.7146 0 1 1 -1.7146 1.7146 1.71665 1.71665 0 0 1 1.7146-1.7146m0-1.12a2.8346 2.8346 0 1 0 2.83471 2.83459 2.83813 2.83813 0 0 0 -2.83471-2.83459z" fill="#fbb90f"/><path d="m110.442 1.12a1.71466 1.71466 0 1 1 -1.71472 1.71459 1.71653 1.71653 0 0 1 1.71472-1.71459m0-1.12a2.83466 2.83466 0 1 0 2.8346 2.83459 2.83816 2.83816 0 0 0 -2.8346-2.83459z" fill="#2fa7bd"/><path d="m109.22429 23.14865-2.83423-1.63849a6.62693 6.62693 0 0 1 -3.15943 5.4273l2.85865 1.65254a9.61623 9.61623 0 0 0 3.13501-5.44135z" fill="#b9ce00"/><path d="m99.76091 14.64248a6.6407 6.6407 0 0 1 6.64062 6.64075c0 .0766-.009.15094-.01147.22693l2.83423 1.63849a9.62776 9.62776 0 0 0 -15.75415-9.1073l2.78454 1.60974a6.6 6.6 0 0 1 3.50623-1.00861z" fill="url(#a)"/><path d="m96.25468 15.65109-2.78454-1.60974a9.61936 9.61936 0 0 0 -3.16089 5.42645l2.82031 1.63043a6.62721 6.62721 0 0 1 3.12512-5.44714z" fill="#b9ce00"/><path d="m99.76091 27.92385a6.64067 6.64067 0 0 1 -6.64063-6.64062c0-.06244.00757-.123.00928-.185l-2.82031-1.63043a9.62811 9.62811 0 0 0 15.78 9.12219l-2.85865-1.65253a6.5999 6.5999 0 0 1 -3.46969.98639z" fill="url(#b)"/></svg>