<svg fill="none" height="56" viewBox="0 0 200 56" width="200" xmlns="http://www.w3.org/2000/svg"><g fill="#000"><path d="m76.0037 18.5151v3.4097c0 2.7131-1.7965 3.813-4.5097 3.813h-1.6865v6.9661h-2.9697v-17.9651h4.6562c2.7132-.0367 4.5097 1.0265 4.5097 3.7763zm-2.9698.44c0-1.2832-.6599-1.6499-1.6498-1.6499h-1.5766v5.7929h1.5766c.9899 0 1.6498-.3667 1.6498-1.6499zm9.6792-4.473h.22c2.7131 0 4.5096 1.0633 4.5096 3.813v10.7791c0 2.7131-1.7965 3.813-4.5096 3.813h-.22c-2.7131 0-4.5096-1.0632-4.5096-3.813v-10.7791c0-2.7497 1.7965-3.813 4.5096-3.813zm.11 15.7654c.9899 0 1.6499-.3667 1.6499-1.6499v-9.8258c0-1.2833-.66-1.6499-1.6499-1.6499s-1.6499.3666-1.6499 1.6499v9.8625c0 1.2465.6967 1.6132 1.6499 1.6132zm11.9157-15.7654h.22c2.7131 0 4.5096 1.0633 4.5096 3.813v10.7791c0 2.7131-1.7965 3.813-4.5096 3.813h-.22c-2.7131 0-4.5096-1.0632-4.5096-3.813v-10.7791c0-2.7497 1.7965-3.813 4.5096-3.813zm.11 15.7654c.9899 0 1.6498-.3667 1.6498-1.6499v-9.8258c0-1.2833-.6599-1.6499-1.6498-1.6499s-1.6499.3666-1.6499 1.6499v9.8625c0 1.2465.66 1.6132 1.6499 1.6132zm15.0692 2.4198h-7.59v-17.9652h2.97v15.2887h4.583v2.6765zm2.089 0v-17.9652h2.97v17.9652zm6.05 0v-17.9652h7.883v2.6031h-4.913v4.9496h4.106v2.6031h-4.106v5.1696h4.986v2.6031h-7.956zm15.912-11.5491v-2.5298c0-1.1365-.623-1.5398-1.503-1.5398s-1.504.4033-1.504 1.5398v1.2466c0 .9166.294 1.3199 1.174 1.8332l2.089 1.1732c1.724.9899 2.75 1.7599 2.75 3.703v2.6032c0 2.7864-1.723 3.7396-4.436 3.7396h-.037c-2.713 0-4.436-.9532-4.436-3.7396v-3.1164h2.933v2.7131c0 1.0999.66 1.5765 1.54 1.5765.917 0 1.54-.4766 1.54-1.5765v-1.4299c0-.9166-.293-1.3932-1.173-1.8699l-2.09-1.1732c-1.76-.9899-2.75-1.8332-2.75-3.703v-2.3465c0-2.6764 1.943-3.703 4.4-3.703h.036c2.457 0 4.4 1.0266 4.4 3.703v2.9331h-2.933zm13.419-3.813h-3.007v15.3621h-2.969v-15.3621h-3.007v-2.6031h8.983zm10.925 11.769c0 2.7865-1.759 3.813-4.472 3.813h-.11c-2.714 0-4.473-.9899-4.473-3.813v-14.3721h2.969v13.8955c0 1.2832.55 1.6499 1.54 1.6499s1.54-.3667 1.54-1.6499v-13.8955h2.97v14.3721zm12.026-10.5591v10.3392c0 2.7131-1.796 3.813-4.509 3.813h-4.583v-17.9652h4.583c2.713 0 4.509 1.0632 4.509 3.813zm-4.619-1.2099h-1.504v12.7223h1.504c.989 0 1.649-.3666 1.649-1.6499v-9.4225c0-1.2832-.66-1.6499-1.649-1.6499zm7.626 15.3621v-17.9652h2.969v17.9652zm10.449-18.1852h.22c2.713 0 4.509 1.0633 4.509 3.813v10.7791c0 2.7131-1.796 3.813-4.509 3.813h-.22c-2.713 0-4.51-1.0632-4.51-3.813v-10.7791c0-2.7497 1.797-3.813 4.51-3.813zm.11 15.7654c.99 0 1.65-.3667 1.65-1.6499v-9.8258c0-1.2833-.66-1.6499-1.65-1.6499s-1.65.3666-1.65 1.6499v9.8625c0 1.2465.66 1.6132 1.65 1.6132zm13.089-9.1293v-2.5298c0-1.1365-.624-1.5398-1.504-1.5398s-1.503.4033-1.503 1.5398v1.2466c0 .9166.293 1.3199 1.173 1.8332l2.09 1.1732c1.723.9899 2.75 1.7599 2.75 3.703v2.6032c0 2.7864-1.723 3.7396-4.436 3.7396h-.037c-2.713 0-4.436-.9532-4.436-3.7396v-3.1164h2.933v2.7131c0 1.0999.66 1.5765 1.54 1.5765.916 0 1.54-.4766 1.54-1.5765v-1.4299c0-.9166-.294-1.3932-1.174-1.8699l-2.089-1.1732c-1.76-.9899-2.75-1.8332-2.75-3.703v-2.3465c0-2.6764 1.943-3.703 4.399-3.703h.037c2.457 0 4.4 1.0266 4.4 3.703v2.9331h-2.933z"/><path d="m26.8378 0-26.8378 7.18607v39.92663l26.8378 8.2493v-9.1659l26.8377-7.1494v-30.79739z"/></g></svg>