<svg fill="none" height="67" viewBox="0 0 200 67" width="200" xmlns="http://www.w3.org/2000/svg" xmlns:xlink="http://www.w3.org/1999/xlink"><linearGradient id="a" gradientUnits="userSpaceOnUse" x1="168.022" x2="157.125" y1="9.47942" y2="28.462"><stop offset=".55544" stop-color="#2fa7bd"/><stop offset="1" stop-color="#b9ce00"/></linearGradient><linearGradient id="b" gradientUnits="userSpaceOnUse" x1="140.151" x2="162.788" y1="57.958" y2="18.5163"><stop offset=".28845" stop-color="#fbb90f"/><stop offset=".51052" stop-color="#b9ce00"/></linearGradient><path d="m161.825 20.3847 7.408-12.81485" stroke="#2fa7bd" stroke-miterlimit="10" stroke-width="1.49333"/><path d="m139.874 58.3563 7.352-12.7188" stroke="#fbb90f" stroke-miterlimit="10" stroke-width="1.49333"/><g fill="#3a3a38"><path d="m14.4578 45.4974c-1.9974 1.3486-4.3442 2.0867-6.75396 2.1242-1.01499.0439-2.02861-.114-2.98214-.4646s-1.82802-.8869-2.5728-1.5779c-.75854-.8299-1.33844-1.8069-1.703726-2.8703-.3652864-1.0633-.5081659-2.1904-.4197745-3.3113v-27.5578h5.1189705v7.7336h8.82293v3.8668h-8.82293v15.0315c-.10871 1.2096.19868 2.42.87133 3.4311.32922.3588.73546.6383 1.18819.8175.45274.1792.9402.2535 1.42578.2174 1.58163-.059 3.12073-.5281 4.46633-1.3615z"/><path d="m127.982 23.0861c-1.76-.0319-3.498.4002-5.038 1.2528-1.464.8291-2.664 2.0565-3.459 3.5398-.859 1.6261-1.29 3.4443-1.251 5.2831-.038 1.8356.383 3.6517 1.225 5.2831.773 1.4792 1.942 2.7142 3.376 3.5668 1.495.8697 3.2 1.3126 4.929 1.2804 1.715.0256 3.418-.2891 5.011-.9259 1.432-.5768 2.703-1.4927 3.703-2.6692l2.887 2.941c-1.324 1.6463-3.037 2.9376-4.984 3.7578-2.164.901-4.491 1.346-6.835 1.3073-2.606.0477-5.179-.5909-7.461-1.8517-2.147-1.2025-3.913-2.9863-5.092-5.1466-1.247-2.3158-1.875-4.9137-1.824-7.5431-.049-2.6377.579-5.2438 1.824-7.5701 1.174-2.1715 2.94-3.9656 5.092-5.1741 2.282-1.2605 4.855-1.8991 7.461-1.8517 2.238-.0333 4.462.3451 6.563 1.1163 1.855.6864 3.524 1.7962 4.874 3.241l-2.778 3.4853c-1.079-1.0748-2.363-1.9225-3.775-2.4931-1.413-.5706-2.925-.8526-4.448-.8292z"/><path d="m57.4913 18.6474v3.2328c-.643-.5799-1.34-1.097-2.0814-1.5442-2.3495-1.2632-4.9843-1.9008-7.6514-1.8517-2.6851-.0535-5.339.5841-7.7067 1.8517-2.1898 1.1927-4.0011 2.9757-5.2281 5.1465-1.2801 2.3048-1.9284 4.9071-1.8791 7.5431-.0538 2.6538.5944 5.2746 1.8791 7.5973 1.2264 2.1713 3.0379 3.9545 5.2281 5.1467 2.3676 1.2679 5.0215 1.9057 7.7067 1.8519 2.6671.0494 5.3021-.5884 7.6514-1.8519.7421-.448 1.4391-.9666 2.0814-1.5487v3.237h5.0651v-28.8105zm-1.3183 19.7701c-.7707 1.5128-1.9624 2.7705-3.4317 3.6215-1.5162.8655-3.2372 1.3076-4.9829 1.28-1.7635.0321-3.5032-.41-5.0375-1.28-1.4689-.8511-2.6603-2.1088-3.4308-3.6215-.8389-1.6521-1.2598-3.4847-1.226-5.3373-.0318-1.8264.3894-3.6322 1.226-5.256.7812-1.5052 1.9701-2.7602 3.4308-3.6215 1.5286-.8867 3.2706-1.3387 5.0375-1.3069 1.7491-.0271 3.4723.4248 4.9829 1.3069 1.4611.8612 2.6503 2.1162 3.4317 3.6215.8359 1.624 1.2568 3.4298 1.2251 5.256.0337 1.8525-.3869 3.685-1.2251 5.3373z"/><path d="m92.4064 12.4116c.8934-.807 2.0647-1.2365 3.268-1.1983 1.2878.0306 2.5527.347 3.7033.9261l1.1983-4.13925c-1.5452-.82088-3.2612-1.26851-5.0105-1.30703-1.6283-.0098-3.2349.37312-4.6837 1.11629-1.4617.75295-2.6798 1.90506-3.513 3.32259-.931 1.6309-1.3928 3.4875-1.3343 5.3645v3.1043h-11.0696v-3.7582c-.0406-.6321.0551-1.2656.2807-1.8576.2256-.5919.5757-1.1285 1.0267-1.5733.8932-.8071 2.0645-1.2366 3.2678-1.1984 1.2877.0308 2.5526.3472 3.7033.9261l1.1977-4.1392c-1.545-.82077-3.2608-1.26836-5.01-1.30691-1.6284-.00975-3.2352.37313-4.6843 1.11618-1.4615.75309-2.6796 1.90517-3.5128 3.32253-.9309 1.6309-1.3927 3.4876-1.3342 5.3646v3.1042h-3.7573v3.8667h3.7573v23.9633h5.0651v-23.9635h11.0697v23.9635h5.0653v-23.9635h7.9515v-3.8667h-7.9515v-3.758c-.0407-.6321.0549-1.2655.2803-1.8575.2254-.5919.5754-1.1285 1.0262-1.5735z"/><path d="m108.048 8.05467c.298.31066.531.67792.686 1.08012.154.4022.226.83121.212 1.26171.014.4306-.058.8597-.212 1.2619s-.388.7694-.686 1.08c-.603.5933-1.415.9258-2.261.9258s-1.657-.3325-2.26-.9258c-.299-.3106-.532-.6778-.686-1.08-.155-.4022-.227-.8313-.212-1.2619-.015-.43048.058-.85949.212-1.26168s.387-.76943.686-1.08009c.603-.5933 1.414-.92582 2.26-.92582s1.658.33246 2.261.92576zm-4.766 10.56563h5.065v28.8106h-5.065z"/><path d="m197.095 21.425c1 1.1069 1.77 2.4016 2.266 3.8087.495 1.4072.706 2.8988.62 4.3881v17.8091h-5.064v-16.4476c.061-1.0374-.088-2.0766-.439-3.0547-.351-.9782-.897-1.875-1.604-2.6365-.752-.7041-1.64-1.2482-2.609-1.5992-.969-.3511-1.999-.5019-3.028-.4432-1.161-.0279-2.315.1771-3.396.6027-1.08.4256-2.064 1.0632-2.894 1.8754-1.651 1.6929-2.628 3.929-2.75 6.2903v15.4128h-5.065v-28.8106h5.065v6.0999c1.924-4.1025 5.573-6.1902 10.946-6.2631 1.459-.0811 2.918.1407 4.287.6515 1.368.5108 2.616 1.2995 3.665 2.3164z"/><path d="m32.0478 18.566c-2.6852-.0534-5.3389.5842-7.7067 1.8516-.7194.4367-1.3966.9394-2.0229 1.5015v-3.1898h-5.0651v28.8105h5.0651v-15.1135c.085-1.5809.5155-3.1239 1.2612-4.5203.7813-1.5051 1.9701-2.7601 3.4308-3.6215 1.5286-.8868 3.2706-1.3387 5.0376-1.3069.1657 0 .3278.0075.4906.0144v-4.4126c-.1638-.0041-.3249-.0134-.4906-.0134z"/></g><path d="m137.959 58.991c.525 0 1.038.1557 1.475.4474.436.2917.777.7063.978 1.1914.201.485.253 1.0188.151 1.5337-.103.515-.356.988-.727 1.3593-.371.3712-.844.624-1.359.7265-.515.1024-1.049.0498-1.534-.1511s-.899-.5412-1.191-.9777c-.292-.4366-.448-.9498-.448-1.4749.001-.7038.281-1.3785.779-1.8761.498-.4977 1.172-.7777 1.876-.7785zm0-1.734c-.868 0-1.716.2574-2.438.7397-.722.4822-1.284 1.1677-1.616 1.9696-.333.8019-.419 1.6843-.25 2.5356.169.8514.587 1.6333 1.201 2.2471.614.6137 1.396 1.0317 2.247 1.201s1.734.0824 2.536-.2498c.802-.3321 1.487-.8946 1.969-1.6164.483-.7217.74-1.5702.74-2.4382-.002-1.1635-.464-2.279-1.287-3.1017s-1.938-1.2855-3.102-1.2869z" fill="#fbb90f"/><path d="m171.018 1.73405c.525.00002 1.038.15573 1.475.44745.436.29173.777.70635.978 1.19145s.253 1.01888.151 1.53384c-.103.51497-.356.98799-.727 1.35924-.371.37126-.844.62408-1.359.7265-.515.10241-1.049.04982-1.534-.15113s-.9-.54123-1.191-.97782c-.292-.43658-.448-.94985-.448-1.47491.001-.70384.281-1.37862.779-1.87629.497-.49768 1.172-.77759 1.876-.77833zm0-1.73405c-.868-.00001837-1.717.257366-2.438.739605-.722.482235-1.285 1.167675-1.617 1.969625s-.419 1.68439-.25 2.53574c.17.85135.588 1.63337 1.202 2.24715.613.61379 1.395 1.03178 2.247 1.20112.851.16934 1.734.08242 2.535-.24977.802-.3322 1.488-.89473 1.97-1.61648s.74-1.57029.74-2.43832c-.002-1.1635-.465-2.27893-1.287-3.10165-.823-.822717-1.938-1.2855615-3.102-1.28702z" fill="#2fa7bd"/><path d="m169.133 35.8401-4.388-2.5368c-.057 1.6958-.534 3.3511-1.388 4.8176-.853 1.4665-2.057 2.6983-3.504 3.5852l4.426 2.5586c2.515-2.1859 4.224-5.1524 4.854-8.4246z" fill="#b9ce00"/><path d="m154.481 22.6703c2.727.0001 5.342 1.0833 7.27 3.0115 1.928 1.9281 3.011 4.5433 3.011 7.2701 0 .1186-.014.2337-.018.3514l4.389 2.5368c.588-3.0433.213-6.1944-1.072-9.0148-1.286-2.8203-3.42-5.1696-6.103-6.721-2.684-1.5513-5.784-2.2275-8.87-1.9344s-6.003 1.5409-8.347 3.5697l4.311 2.4923c1.627-1.0203 3.509-1.5615 5.429-1.5616z" fill="url(#a)"/><path d="m149.052 24.2319-4.311-2.4923c-2.525 2.1742-4.248 5.1324-4.894 8.4016l4.367 2.5243c.046-1.6962.512-3.3545 1.357-4.8263.844-1.4718 2.04-2.7112 3.481-3.6073z" fill="#b9ce00"/><path d="m154.481 43.2333c-2.727 0-5.342-1.0832-7.27-3.0114-1.928-1.9281-3.011-4.5432-3.011-7.27 0-.0967.011-.1904.014-.2864l-4.367-2.5243c-.605 3.0522-.24 6.2173 1.045 9.0516 1.284 2.8343 3.423 5.1956 6.117 6.7529s5.808 2.2326 8.905 1.9311 6.022-1.5645 8.365-3.6122l-4.426-2.5585c-1.614.998-3.474 1.5268-5.372 1.5272z" fill="url(#b)"/></svg>